<svg xmlns="http://www.w3.org/2000/svg" version="1.1" xmlns:xlink="http://www.w3.org/1999/xlink" xmlns:svgjs="http://svgjs.com/svgjs" width="1920" height="300" preserveAspectRatio="none" viewBox="0 0 1920 300"><g mask="url(&quot;#SvgjsMask1388&quot;)" fill="none"><rect width="1920" height="300" x="0" y="0" fill="url(#SvgjsLinearGradient1389)"></rect><path d="M56 300L356 0L681.5 0L381.5 300z" fill="url(#SvgjsLinearGradient1390)"></path><path d="M369.8 300L669.8 0L752.3 0L452.3 300z" fill="url(#SvgjsLinearGradient1390)"></path><path d="M650.6 300L950.6 0L1114.1 0L814.1 300z" fill="url(#SvgjsLinearGradient1390)"></path><path d="M987.4000000000001 300L1287.4 0L1423.9 0L1123.9 300z" fill="url(#SvgjsLinearGradient1390)"></path><path d="M1870 300L1570 0L1429 0L1729 300z" fill="url(#SvgjsLinearGradient1391)"></path><path d="M1567.2 300L1267.2 0L827.7 0L1127.7 300z" fill="url(#SvgjsLinearGradient1391)"></path><path d="M1256.4 300L956.4000000000001 0L809.4000000000001 0L1109.4 300z" fill="url(#SvgjsLinearGradient1391)"></path><path d="M927.5999999999999 300L627.5999999999999 0L318.5999999999999 0L618.5999999999999 300z" fill="url(#SvgjsLinearGradient1391)"></path><path d="M1723.2448686086027 300L1920 103.24486860860281L1920 300z" fill="url(#SvgjsLinearGradient1390)"></path><path d="M0 300L196.75513139139719 300L 0 103.24486860860281z" fill="url(#SvgjsLinearGradient1391)"></path></g><defs><mask id="SvgjsMask1388"><rect width="1920" height="300" fill="#ffffff"></rect></mask><linearGradient x1="50%" y1="100%" x2="50%" y2="0%" gradientUnits="userSpaceOnUse" id="SvgjsLinearGradient1389"><stop stop-color="#0e2a47" offset="0"></stop><stop stop-color="rgba(15, 40, 70, 1)" offset="1"></stop></linearGradient><linearGradient x1="0%" y1="100%" x2="100%" y2="0%" id="SvgjsLinearGradient1390"><stop stop-color="rgba(15, 70, 185, 0.13)" offset="0"></stop><stop stop-opacity="0" stop-color="rgba(15, 70, 185, 0.13)" offset="0.66"></stop></linearGradient><linearGradient x1="100%" y1="100%" x2="0%" y2="0%" id="SvgjsLinearGradient1391"><stop stop-color="rgba(15, 70, 185, 0.13)" offset="0"></stop><stop stop-opacity="0" stop-color="rgba(15, 70, 185, 0.13)" offset="0.66"></stop></linearGradient></defs></svg>